<svg width="14" height="4" viewBox="0 0 14 4" fill="none" xmlns="http://www.w3.org/2000/svg">
<g opacity="0.3">
<path d="M13.4875 0.512567C12.804 -0.170848 11.696 -0.170848 11.0126 0.512567C10.3292 1.19598 10.3292 2.30402 11.0126 2.98744C11.696 3.67085 12.804 3.67085 13.4875 2.98744C14.1709 2.30405 14.1709 1.19601 13.4875 0.512567Z" fill="#030229"/>
<path d="M8.23746 0.512567C7.55405 -0.170848 6.44601 -0.170848 5.76259 0.512567C5.07918 1.19598 5.07918 2.30402 5.76259 2.98744C6.44601 3.67085 7.55405 3.67085 8.23746 2.98744C8.92088 2.30405 8.92088 1.19601 8.23746 0.512567Z" fill="#030229"/>
<path d="M2.98746 0.512567C2.30405 -0.170848 1.196 -0.170848 0.512588 0.512567C-0.170828 1.19598 -0.170828 2.30402 0.512588 2.98744C1.196 3.67085 2.30405 3.67085 2.98746 2.98744C3.67088 2.30405 3.67088 1.19601 2.98746 0.512567Z" fill="#030229"/>
</g>
</svg>
